SplineFontDB: 3.0
FontName: font4499
FullName: font4499
FamilyName: SVGFont
Weight: Regular
Copyright: 
Version: 
ItalicAngle: 0
UnderlinePosition: 0
UnderlineWidth: 0
Ascent: 765
Descent: 235
InvalidEm: 0
LayerCount: 2
Layer: 0 0 "Back" 1
Layer: 1 0 "Fore" 0
XUID: [1021 197 757643960 3191421]
OS2Version: 0
OS2_WeightWidthSlopeOnly: 0
OS2_UseTypoMetrics: 0
CreationTime: 1438784012
ModificationTime: 1438972939
PfmFamily: 17
TTFWeight: 400
TTFWidth: 5
LineGap: 90
VLineGap: 90
OS2TypoAscent: 0
OS2TypoAOffset: 1
OS2TypoDescent: 0
OS2TypoDOffset: 1
OS2TypoLinegap: 90
OS2WinAscent: 0
OS2WinAOffset: 1
OS2WinDescent: 0
OS2WinDOffset: 1
HheadAscent: 0
HheadAOffset: 1
HheadDescent: 0
HheadDOffset: 1
OS2CapHeight: 0
OS2XHeight: 0
OS2Vendor: 'PfEd'
MarkAttachClasses: 1
DEI: 91125
Encoding: ISO8859-1
UnicodeInterp: none
NameList: AGL For New Fonts
DisplaySize: -48
AntiAlias: 1
FitToEm: 1
WinInfo: 68 17 6
BeginPrivate: 0
EndPrivate
Grid
-1000 810.400024414 m 0
 2000 810.400024414 l 1024
-1000 252 m 0
 2000 252 l 1024
321.946777344 1300 m 0
 321.946777344 -700 l 1024
-1000 712 m 0
 2000 712 l 1024
  Named: "caps"
-1000 515 m 0
 2000 515 l 1024
-1000 666 m 0
 2000 666 l 1024
-1000 874 m 0
 2000 874 l 1024
-997 511 m 4
 2003 511 l 1028
  Named: "x height"
EndSplineSet
BeginChars: 257 31

StartChar: n
Encoding: 110 110 0
Width: 591
Flags: HW
HStem: 0 21G<108.509 131.679> 0.0703125 21G<405.135 428.67> 352.737 162.263<254.099 391.178>
VStem: -14.355 226.224<58.7778 152.944 372.09 479.943> -4.41646 216.285<40.3229 418.738> 118.432 94<274.07 347.245> 287.265 214.166<92.0054 351.809>
LayerCount: 2
Back
SplineSet
290.065429688 251.100585938 m 4
 290.065429688 313.576171875 281.931640625 380.200195312 263.545898438 380.431640625 c 4
 245.159179688 380.663085938 234.065429688 314.03515625 234.065429688 252.41796875 c 4
 234.065429688 194.614257812 243.28125 130 262.737304688 130 c 4
 282.192382812 130 290.065429688 192.493164062 290.065429688 251.100585938 c 4
263.78125 -4.228515625 m 4
 96.5654296875 -4.228515625 -39.041015625 88 -39.041015625 252 c 4
 -39.041015625 416.000976562 90.2734375 515 263.4140625 515 c 4
 436.5546875 515 563.065429688 416.000976562 563.065429688 252 c 4
 563.065429688 88 430.998046875 -4.228515625 263.78125 -4.228515625 c 4
EndSplineSet
Fore
Refer: 18 152 S 1 0 0 1 -68.2886 0 2
Refer: 10 305 N 1 0 0 1 -64.2787 0 2
EndChar

StartChar: e
Encoding: 101 101 1
Width: 584
Flags: HW
HStem: -4.22852 170.229<251.782 411.186> 233 80.333<123.354 312.374> 397.713 117.287<254.711 313.792>
VStem: 315.85 226.977<314.039 396.902>
LayerCount: 2
Back
Fore
SplineSet
298.233398438 -4.228515625 m 4
 132.81640625 -4.228515625 1.6328125 88 1.6328125 251.811523438 c 0
 1.6328125 416.000976562 125.048828125 515 296.1328125 515 c 0
 473.547851562 515 542.827148438 450.5 542.827148438 360 c 0
 542.827148438 299.569335938 486.239257812 233 371.739257812 233 c 0
 82.7392578125 230.5 l 0
 123.239257812 310 l 1
 123.239257812 310 281.875976562 313.333007812 292.18359375 313.333007812 c 0
 300.965820312 313.333007812 306.026367188 317.904296875 309.829101562 327.286132812 c 0
 313.6328125 336.666992188 315.850585938 350.102539062 315.850585938 366.669921875 c 0
 315.850585938 385.25 309.658203125 397.712890625 287.658203125 397.712890625 c 0
 272.276367188 397.712890625 256.400390625 389.731445312 242.299804688 357.999023438 c 0
 232.862304688 326.266601562 231.516601562 303.900390625 227.759765625 246.46875 c 0
 223.55078125 185 270.663085938 166 339.239257812 166 c 4
 373.271484375 166 408.239257812 170 435.658203125 178.05078125 c 4
 470.29296875 188.219726562 483.981445312 206.912109375 502.811523438 206.912109375 c 4
 537.739257812 206.912109375 554.739257812 187 554.739257812 166 c 4
 554.739257812 117.5 464.748046875 -4.228515625 298.233398438 -4.228515625 c 4
EndSplineSet
EndChar

StartChar: p
Encoding: 112 112 2
Width: 674
Flags: HW
LayerCount: 2
Back
SplineSet
306.223632812 -54 m 4
 306.223632812 -77.931640625 315.313476562 -97 323.471679688 -109.923828125 c 5
 337.04296875 -131.423828125 310.884765625 -167.940429688 290.8671875 -177.857421875 c 4
 263.430664062 -191.44921875 227.271484375 -200 191.938476562 -200 c 4
 168.979492188 -200 123.716796875 -201.413085938 96.4384765625 -183 c 4
 69.771484375 -165 58.0048828125 -143.638671875 53.4384765625 -107.33203125 c 4
 48.9296875 -68.8740234375 47.314453125 -27.5859375 49.9384765625 10.5 c 4
 52.2939453125 42.36328125 52.3203125 81.03125 52.3134765625 125 c 4
 52.3056640625 178.01953125 54.314453125 222 52.205078125 299.59375 c 4
 51.24609375 334.865234375 40 395.834960938 40 419.892578125 c 4
 40 442.749023438 42.7177734375 457.655273438 58.3134765625 475 c 4
 74.658203125 493.177734375 131.8515625 510.841796875 181.313476562 511 c 4
 242.313476562 511.1953125 293.953125 501.299804688 299.284179688 464.205078125 c 4
 311.313476562 379.1875 306.223632812 -15.0283203125 306.223632812 -54 c 4
253.849609375 393.5 m 0
 273.349609375 417.5 309.905273438 450.768554688 355.349609375 476.5 c 0
 393.3203125 498 425.270507812 515 480.68359375 515 c 0
 532.682617188 515 560.349609375 494.5 586.349609375 469 c 0
 616.209960938 439.713867188 634.498046875 371 634.498046875 293 c 0
 634.498046875 194.954101562 619.813476562 127.041992188 602.95703125 90 c 0
 580.45703125 40.5556640625 547.95703125 1 434.95703125 1 c 0
 378.650390625 1 271.358398438 1 240.95703125 1 c 0
 240.95703125 94 l 0
 240.95703125 94 300.15625 94 333.478515625 94 c 0
 354.979492188 94 363.54296875 106.684570312 363.54296875 126.709960938 c 0
 363.54296875 170.763671875 364.41796875 233.173828125 364.313476562 262.666015625 c 0
 364.208984375 292.04296875 363.818359375 298.528320312 362.479492188 309 c 0
 360.646484375 323.333007812 355.376953125 343.5 337.349609375 343.5 c 0
 324.349609375 343.5 314.349609375 336 309.849609375 321.5 c 0
 306.09375 309.3984375 306.349609375 290.75 306.349609375 271.75 c 1
 215.849609375 271.5 l 1
 215.795898438 322.266601562 234.420898438 369.587890625 253.849609375 393.5 c 0
EndSplineSet
Fore
Refer: 24 155 N 1 0 0 1 120 0 2
Refer: 16 150 N 1 0 0 1 4 -200 2
Refer: 9 129 N 1 0 0 1 5 -201 2
EndChar

StartChar: h
Encoding: 104 104 3
Width: 668
Flags: W
HStem: 0.0703125 21G<476.37 499.905 476.37 499.905 476.37 499.905> 0.479492 711.019<106.049 260.755 106.049 260.755 106.049 260.755> 352.737 162.263<325.333 462.413 325.333 462.413 325.333 462.413>
VStem: 65.1553 217.42<41.0064 618.645 41.0064 618.645 41.0064 618.645> 189.667 94<274.07 347.245 274.07 347.245 274.07 347.245> 358.5 214.166<92.0054 351.809 92.0054 351.809 92.0054 351.809>
LayerCount: 2
Back
SplineSet
48.3623046875 92.66796875 m 0
 45 123 44.0796462658 179.770798762 44.8623046875 202.5 c 0
 46.4140170589 247.563314693 50 321.804605023 50 385 c 4
 50 459.354169953 34.923828125 572.482310255 34.923828125 619.34765625 c 0
 34.923828125 642.844726562 37.640625 658.168945312 53.2373046875 676 c 1
 71.5 689.955078125 103.5 710.907226562 169.118164062 710.907226562 c 0
 252.5 710.907226562 293.28515625 699.455078125 293.28515625 651.907226562 c 0
 293.28515625 580.881971437 294.284179688 447.665114126 294.284179688 268.333007812 c 0
 294.284179688 205.513671875 295.618065721 182.666980247 300.0703125 146 c 0
 302.955078125 122.2421875 309.160434295 103.000175513 317.318359375 90.076171875 c 0
 330.889648438 68.576171875 304.519589685 32.4764505046 284.713867188 22.142578125 c 0
 258.6640625 8.55078125 224.333007812 0 190.78515625 0 c 0
 167.10546875 0 118.161966823 -1.81661744196 90.28515625 17 c 0
 63.6181640625 35 51.724609375 62.3359375 48.3623046875 92.66796875 c 0
357.885742188 92.66796875 m 0
 343.75 175.272460938 354.687046312 312.732420583 354.71875 325.666015625 c 0
 354.759765625 342.3984375 347.218752036 352.99989198 329.552734375 352.666992188 c 0
 304.055664062 352.186523438 292.866210938 328.147460938 293.885742188 274 c 1
 253.368164062 272.400390625 235.541015625 272.62890625 199.885742188 270 c 1
 199.885742188 332 225.261177356 404.971970218 312.010742188 460 c 0
 349.4609375 483.755859375 406.758792269 516.062694946 475.631835938 514.9296875 c 0
 556.484375 513.599609375 600.363258545 485.932616522 601.885742188 434 c 0
 602.884765625 399.922851562 602.884765625 354.4140625 602.884765625 268.333007812 c 0
 602.884765625 205.513671875 604.218651658 182.666980247 608.670898438 146 c 0
 611.555664062 122.2421875 617.761020233 103.000175513 625.918945312 90.076171875 c 0
 639.490234375 68.576171875 613.120175623 32.4764505046 593.314453125 22.142578125 c 0
 567.264648438 8.55078125 532.93359375 0 499.385742188 0 c 0
 475.706054688 0 428.762552761 -1.81661744196 400.885742188 17 c 0
 374.21875 35 363.611075102 59.211061308 357.885742188 92.66796875 c 0
EndSplineSet
Fore
Refer: 16 150 S 1 0 0 1 0 0 2
Refer: 18 152 N 1 0 0 1 2.94678 0 2
EndChar

StartChar: m
Encoding: 109 109 4
Width: 845
Flags: HW
HStem: 0 21G<124.12 147.29> 0.0703125 21G<415.703 439.238 693.703 717.238> 352.737 162.263<264.667 401.746 542.667 679.746>
VStem: 1.25713 226.224<58.7778 152.944 372.09 479.943> 11.1956 216.285<40.3229 418.738> 129 94<274.07 347.245> 297.833 214.166<92.0054 351.809> 407 94<274.07 347.245> 575.833 214.166<92.0054 351.809>
LayerCount: 2
Back
SplineSet
603.627929688 92.66796875 m 4
 589.4921875 175.272460938 600.440429688 312.732421875 600.4609375 325.666015625 c 4
 600.487304688 342.3984375 595.646484375 352.88671875 584.294921875 352.666992188 c 4
 559.512695312 352.186523438 548.637695312 328.147460938 549.627929688 274 c 5
 509.110351562 272.400390625 491.283203125 272.62890625 455.627929688 270 c 5
 455.627929688 332 485.793945312 408.688476562 567.752929688 460 c 4
 603.650390625 482.473632812 659.390625 515.002929688 721.374023438 514.9296875 c 4
 799.03515625 514.837890625 841.10546875 485.930664062 842.627929688 434 c 4
 843.626953125 399.922851562 843.626953125 354.4140625 843.626953125 268.333007812 c 4
 843.626953125 205.513671875 844.9609375 182.666992188 849.413085938 146 c 4
 852.297851562 122.2421875 858.50390625 103 866.661132812 90.076171875 c 4
 880.232421875 68.576171875 853.622070312 32.9248046875 834.056640625 22.142578125 c 4
 809.393554688 8.55078125 776.890625 0 745.127929688 0 c 4
 721.448242188 0 674.504882812 -1.81640625 646.627929688 17 c 4
 619.9609375 35 609.353515625 59.2109375 603.627929688 92.66796875 c 4
254.48046875 146 m 4
 254.48046875 122.068359375 263.5703125 103 271.728515625 90.076171875 c 5
 285.299804688 68.576171875 259.142578125 32.0595703125 239.124023438 22.142578125 c 4
 211.6875 8.55078125 175.528320312 0 140.1953125 0 c 4
 117.237304688 0 71.974609375 -1.4130859375 44.6953125 17 c 4
 18.0283203125 35 6.2626953125 56.361328125 1.6953125 92.66796875 c 4
 -2.8134765625 128.514648438 -2.453125 179.766601562 -1.8046875 202.5 c 4
 -1.1201171875 226.474609375 1.7705078125 266.091796875 0.4619140625 299.59375 c 4
 -0.9150390625 334.8515625 -11.7431640625 395.834960938 -11.7431640625 419.892578125 c 4
 -11.7431640625 442.749023438 -9.025390625 457.655273438 6.5703125 475 c 4
 22.9150390625 493.177734375 80.1083984375 510.841796875 129.5703125 511 c 4
 190.5703125 511.1953125 239.126953125 500.723632812 247.541015625 464.205078125 c 4
 259.5703125 412 254.48046875 169.930664062 254.48046875 146 c 4
309.5703125 92.66796875 m 4
 295.434570312 175.272460938 306.3828125 312.732421875 306.403320312 325.666015625 c 4
 306.4296875 342.3984375 301.588867188 352.88671875 290.237304688 352.666992188 c 4
 265.455078125 352.186523438 254.580078125 328.147460938 255.5703125 274 c 5
 215.052734375 272.400390625 197.225585938 272.62890625 161.5703125 270 c 5
 161.5703125 332 191.736328125 408.688476562 273.6953125 460 c 4
 309.592773438 482.473632812 365.333007812 515.002929688 427.31640625 514.9296875 c 4
 504.977539062 514.837890625 547.047851562 485.930664062 548.5703125 434 c 4
 549.569335938 399.922851562 549.569335938 354.4140625 549.569335938 268.333007812 c 4
 549.569335938 205.513671875 550.903320312 182.666992188 555.35546875 146 c 4
 558.240234375 122.2421875 564.446289062 103 572.603515625 90.076171875 c 4
 586.174804688 68.576171875 559.564453125 32.9248046875 539.999023438 22.142578125 c 4
 515.3359375 8.55078125 482.833007812 0 451.0703125 0 c 4
 427.390625 0 380.447265625 -1.81640625 352.5703125 17 c 4
 325.903320312 35 315.295898438 59.2109375 309.5703125 92.66796875 c 4
EndSplineSet
Fore
Refer: 18 152 S 1 0 0 1 220.28 0 2
Refer: 18 152 S 1 0 0 1 -57.7199 0 2
Refer: 10 305 S 1 0 0 1 -48.6667 0 2
EndChar

StartChar: i
Encoding: 105 105 5
Width: 362
Flags: HW
LayerCount: 2
Back
SplineSet
296.147460938 146 m 4
 296.147460938 122.068359375 305.237304688 103 313.395507812 90.076171875 c 5
 326.966796875 68.576171875 300.80859375 32.0595703125 280.791015625 22.142578125 c 4
 253.354492188 8.55078125 217.1953125 0 181.862304688 0 c 4
 158.904296875 0 113.641601562 -1.4130859375 86.3623046875 17 c 4
 59.6953125 35 47.9287109375 56.361328125 43.3623046875 92.66796875 c 4
 38.853515625 128.514648438 39.212890625 179.766601562 39.8623046875 202.5 c 4
 40.546875 226.474609375 43.4375 266.091796875 42.12890625 299.59375 c 4
 40.751953125 334.8515625 29.923828125 395.834960938 29.923828125 419.892578125 c 4
 29.923828125 443.389797786 32.640625 458.71394053 48.2373046875 476.544921875 c 4
 64.5820312499 494.72265625 121.775390625 512.38671875 171.237304688 512.544921875 c 4
 232.237304688 512.746682565 280.79296875 501.929283163 289.208007812 464.205078125 c 4
 301.237304688 412 296.147460938 169.930664062 296.147460938 146 c 4
EndSplineSet
Fore
SplineSet
292.518554688 640 m 0
 292.518554688 577.838876919 231.265603757 551.60546875 170.985351562 551.60546875 c 0
 99.4387334391 551.60546875 33.5625 568.907094381 33.5625 634.2734375 c 0
 33.5625 690.379423029 85.693512995 716.802734375 164.118164062 716.802734375 c 0
 241.475317876 716.802734375 292.518554688 686.894201562 292.518554688 640 c 0
EndSplineSet
Refer: 10 305 N 1 0 0 1 0 0 2
EndChar

StartChar: b
Encoding: 98 98 6
Width: 632
Flags: HW
HStem: -4.72787 134.229<282.269 452.066 282.269 452.066> 0.479492 711.019<68.3823 223.088 68.3823 223.088> 379.932 134.568<248.059 331.978 248.059 331.978>
VStem: 27.4886 217.42<41.0064 618.645 41.0064 618.645> 124.227 102<160.222 342.121 160.222 342.121> 360.227 235.625<158.614 348.551 158.614 348.551>
LayerCount: 2
Back
SplineSet
264.556640625 565.938476562 m 4
 264.556640625 589.870117188 273.646484375 608.938476562 281.8046875 621.862304688 c 5
 295.375976562 643.362304688 269.217773438 679.87890625 249.200195312 689.795898438 c 4
 221.763671875 703.387695312 185.604492188 711.938476562 150.271484375 711.938476562 c 4
 127.3125 711.938476562 82.0498046875 713.3515625 54.771484375 694.938476562 c 4
 28.1044921875 676.938476562 16.337890625 655.577148438 11.771484375 619.270507812 c 4
 7.2626953125 580.8125 5.6474609375 539.524414062 8.271484375 501.438476562 c 4
 10.626953125 469.575195312 10.6533203125 430.907226562 10.646484375 386.938476562 c 4
 10.638671875 333.918945312 12.6474609375 289.938476562 10.5380859375 212.344726562 c 4
 9.5791015625 177.073242188 -1.6669921875 116.103515625 -1.6669921875 92.0458984375 c 4
 -1.6669921875 69.189453125 1.05078125 54.283203125 16.646484375 36.9384765625 c 4
 32.9912109375 18.7607421875 90.1845703125 1.0966796875 139.646484375 0.9384765625 c 4
 200.646484375 0.7431640625 252.286132812 10.638671875 257.6171875 47.7333984375 c 4
 269.646484375 132.750976562 264.556640625 526.966796875 264.556640625 565.938476562 c 4
173.684570312 240.438476562 m 5
 173.684570312 95.0400390625 326.333007812 -3.984375 447.719726562 -3.0615234375 c 4
 520.331054688 -2.509765625 592.333007812 48.9384765625 592.333007812 249.938476562 c 4
 592.333007812 450.938476562 513.333007812 511.938476562 426.83203125 511 c 4
 340.33203125 510.061523438 229.193359375 473.938476562 198.791992188 473.938476562 c 4
 198.791992188 392.938476562 l 29
 198.791992188 392.938476562 257.991210938 392.938476562 285.40234375 392.938476562 c 4
 312.814453125 392.938476562 321.377929688 380.25390625 321.377929688 348.213867188 c 4
 321.377929688 322.640625 322.231445312 272.825195312 322.1484375 249.330078125 c 4
 322.043945312 219.895507812 321.653320312 213.41015625 320.067382812 201.0078125 c 4
 318.481445312 188.60546875 313.211914062 168.438476562 297.698242188 168.438476562 c 4
 282.184570312 168.438476562 272.184570312 175.938476562 268.056640625 189.239257812 c 4
 263.928710938 202.540039062 264.184570312 221.188476562 264.184570312 240.188476562 c 5
 264.184570312 240.188476562 228.333007812 240.438476562 173.684570312 240.438476562 c 5
EndSplineSet
Fore
Refer: 24 155 S 1 0 0 1 94.3333 -0.499359 2
Refer: 16 150 S 1 0 0 1 -37.6667 0 2
EndChar

StartChar: u
Encoding: 117 117 7
Width: 594
Flags: HW
HStem: 0 21G<410.454 433.624 410.454 433.624> 0 162.263<115.544 257.623 115.544 257.623>
VStem: -0.934933 225.392<165.358 344.32 165.358 344.32 383.599 479.943 383.599 479.943> 11.2907 213.166<163.427 489.816 163.427 489.816> 287.591 226.224<58.7778 152.944 58.7778 152.944 372.09 479.943 372.09 479.943> 297.529 216.285<40.3229 418.738 40.3229 418.738> 299.999 95.291<171.704 240.931 171.704 240.931>
LayerCount: 2
Back
SplineSet
296.37890625 368.9296875 m 4
 296.37890625 392.861328125 287.2890625 411.9296875 279.130859375 424.853515625 c 5
 265.559570312 446.353515625 291.717773438 482.870117188 311.735351562 492.787109375 c 4
 339.171875 506.37890625 375.331054688 514.9296875 410.6640625 514.9296875 c 4
 433.622070312 514.9296875 478.884765625 516.342773438 506.1640625 497.9296875 c 4
 532.831054688 479.9296875 544.59765625 458.568359375 549.1640625 422.26171875 c 4
 553.672851562 386.415039062 553.313476562 335.163085938 552.6640625 312.4296875 c 4
 551.979492188 288.455078125 549.088867188 248.837890625 550.397460938 215.3359375 c 4
 551.774414062 180.078125 562.602539062 119.094726562 562.602539062 95.037109375 c 4
 562.602539062 71.5400390625 559.885742188 56.2158203125 544.2890625 38.384765625 c 4
 527.944335938 20.20703125 470.750976562 2.54296875 421.2890625 2.384765625 c 4
 360.2890625 2.1826171875 311.733398438 13 303.318359375 50.724609375 c 4
 291.2890625 102.9296875 296.37890625 344.999023438 296.37890625 368.9296875 c 4
231.2890625 422.26171875 m 4
 245.424804688 339.657226562 234.48828125 202.197265625 234.456054688 189.263671875 c 4
 234.415039062 172.53125 241.956054688 161.9296875 259.622070312 162.262695312 c 4
 285.119140625 162.743164062 296.30859375 186.782226562 295.2890625 240.9296875 c 5
 335.806640625 242.529296875 353.633789062 242.30078125 389.2890625 244.9296875 c 5
 389.2890625 182.9296875 363.9140625 109.95703125 277.1640625 54.9296875 c 4
 239.713867188 31.173828125 182.416015625 -1.1328125 113.54296875 0 c 4
 32.6904296875 1.330078125 -11.1884765625 28.9970703125 -12.7109375 80.9296875 c 4
 -13.7099609375 115.006835938 -13.7099609375 160.515625 -13.7099609375 246.596679688 c 4
 -13.7099609375 309.416015625 -15.0439453125 332.262695312 -19.49609375 368.9296875 c 4
 -22.380859375 392.6875 -28.5859375 411.9296875 -36.744140625 424.853515625 c 4
 -50.3154296875 446.353515625 -23.9453125 482.453125 -4.1396484375 492.787109375 c 4
 21.91015625 506.37890625 56.2412109375 514.9296875 89.7890625 514.9296875 c 4
 113.46875 514.9296875 160.412109375 516.74609375 188.2890625 497.9296875 c 4
 214.956054688 479.9296875 225.564453125 455.71875 231.2890625 422.26171875 c 4
EndSplineSet
Fore
Refer: 25 149 N 1 0 0 1 -31.3333 0 2
Refer: 10 305 S 1 0 0 1 237.667 0 2
EndChar

StartChar: dotlessi
Encoding: 256 305 10
Width: 362
Flags: W
HStem: 0 21G<172.787 195.957>
VStem: 49.9238 226.224<58.7778 152.944 372.09 479.943> 59.8623 216.285<40.3229 418.738>
LayerCount: 2
Back
Fore
SplineSet
276.147460938 146 m 4xc0
 276.147460938 122.068359375 285.237304688 103 293.395507812 90.076171875 c 5
 306.966796876 68.576171875 280.80859375 32.0595703125 260.791015625 22.142578125 c 4
 238.901218346 8.55078125 210.05218742 0 181.862304688 0 c 4
 163.712256626 0 127.928659808 -1.4130859375 106.362304688 17 c 4
 79.6953125 35 67.9287109375 56.361328125 63.3623046875 92.66796875 c 4
 58.853515625 128.514648438 59.212890625 179.766601562 59.8623046875 202.5 c 0xa0
 60.546875 226.474609375 63.4375 266.091796875 62.12890625 299.59375 c 0
 60.751953125 334.8515625 49.923828125 395.834960938 49.923828125 419.892578125 c 0
 49.923828125 443.389797786 52.640625 458.71394053 68.2373046875 476.544921875 c 0
 81.9243521341 494.72265625 129.817978277 512.38671875 171.237304688 512.544921875 c 0
 221.895754052 512.746682565 262.21960076 501.929283163 269.208007812 464.205078125 c 0
 281.237304687 412 276.147460938 169.930664062 276.147460938 146 c 4xc0
EndSplineSet
EndChar

StartChar: o
Encoding: 111 111 11
Width: 552
Flags: HW
HStem: -4.22852 114.229<192.179 254.638> 400.432 114.568<192.676 254.153>
VStem: -68.9059 233.106<147.492 358.536> 280.201 233<147.057 362.582>
LayerCount: 2
Back
Refer: 10 305 S 1 0 0 1 -115.79 0 2
Refer: 18 152 S 1 0 0 1 -119.8 0 2
Refer: 10 305 N 1 0 0 1 -115.79 0 2
Refer: 18 152 N 1 0 0 1 -119.8 0 2
Fore
SplineSet
280.200195312 251.100585938 m 4
 280.200195312 323.237304688 262.865234375 400.1640625 223.680664062 400.431640625 c 0
 186.583007812 400.69921875 164.200195312 323.662109375 164.200195312 252.41796875 c 0
 164.200195312 185.170898438 183.05859375 110 222.872070312 110 c 0
 263.68359375 110 280.200195312 182.814453125 280.200195312 251.100585938 c 4
223.916015625 -4.228515625 m 0
 62.2216796875 -4.228515625 -68.90625 88 -68.90625 252 c 0
 -68.90625 416.000976562 56.1328125 515 223.548828125 515 c 0
 390.911132812 515 513.200195312 416.000976562 513.200195312 252 c 0
 513.200195312 88 385.544921875 -4.228515625 223.916015625 -4.228515625 c 0
EndSplineSet
EndChar

StartChar: g
Encoding: 103 103 15
Width: 636
Flags: HW
HStem: -4.22852 134.229<142.572 312.369> 380.432 134.568<262.66 346.579>
VStem: -1.21362 235.625<159.114 349.098> 368.412 102<160.636 343.173>
LayerCount: 2
Back
SplineSet
151.3828125 -312.389648438 m 4
 79.5908203125 -312.389648438 44.4453125 -263.33984375 44.4453125 -201.845703125 c 4
 44.4453125 -178.919921875 47.271484375 -151.84765625 56.8935546875 -132 c 4
 68.4443359375 -108.172851562 99.3603515625 -77.0888671875 117.666015625 -85.986328125 c 5
 135.97265625 -94.884765625 195.84375 -98.33984375 223.3828125 -98.33984375 c 4
 291.3828125 -98.33984375 384.893554688 -88 384.893554688 36 c 4
 384.893554688 78 381.259765625 397.447265625 381.259765625 440.723632812 c 4
 381.259765625 484 423.114257812 511.479492188 476.810546875 511.498046875 c 4
 523.504882812 511.514648438 572.704101562 493.657226562 586.206054688 475.896484375 c 4
 600.661132812 456.881835938 604.893554688 443.228515625 604.893554688 419.771484375 c 4
 604.893554688 396.314453125 593.647460938 283.33984375 592.11328125 226.907226562 c 4
 590.579101562 170.474609375 592.466796875 100.494140625 592.581054688 52 c 4
 593.051757812 -148.622070312 566.948242188 -174.22265625 526.893554688 -220 c 4
 484.893554688 -268 387.3828125 -312.389648438 151.3828125 -312.389648438 c 4
EndSplineSet
Refer: 20 154 S 1 0 0 1 -7.10722 0 2
Fore
SplineSet
588.166015625 167 m 25
 588.166015625 -124 520.946289062 -237.033203125 304.893554688 -237.033203125 c 0
 167.946289062 -237.033203125 28.3349609375 -140 28.3349609375 -66.8046875 c 0
 28.3349609375 -45.8046875 57.3349609375 -25.892578125 92.2626953125 -25.892578125 c 0
 111.092773438 -25.892578125 120.78125 -44.583984375 155.416015625 -54.75390625 c 0
 182.834960938 -62.8046875 218.946289062 -68 265.893554688 -68 c 0
 329.893554688 -68 365.840820312 -31 366.42578125 85.0927734375 c 0
 366.669921875 133.5859375 368.427734375 221.567382812 366.893554688 278 c 0
 365.359375 334.432617188 354.11328125 395.40234375 354.11328125 418.859375 c 0
 354.11328125 442.31640625 356.831054688 457.22265625 372.80078125 474.984375 c 0
 386.302734375 492.745117188 435.501953125 510.6015625 482.196289062 510.5859375 c 0
 535.892578125 510.567382812 577.747070312 486 577.747070312 439.811523438 c 0
 577.747070312 393.623046875 584.102539062 273.396484375 588.166015625 167 c 25
EndSplineSet
Refer: 20 154 N 1 0 0 1 -31.1072 0 2
EndChar

StartChar: uni0096
Encoding: 150 150 16
Width: 382
Flags: W
HStem: 0.479492 711.019<106.049 260.755>
VStem: 65.1553 217.42<41.0064 618.645>
LayerCount: 2
Back
Fore
SplineSet
282.575195312 154 m 0
 282.575195312 122.547851562 291.665039062 103.479492188 302.530273438 86.267578125 c 1
 313.394531249 69.0556640625 287.236328125 32.5390625 263.509765625 20.78515625 c 0
 244.845822741 9.0302734375 216.403224348 0.4794921875 193.477539062 0.4794921875 c 0
 170.080898159 0.4794921875 133.747355666 -0.9326171875 112.095703125 17.2734375 c 0
 85.123046875 35.4794921875 73.3564453125 56.8408203125 68.8193359375 94.2236328125 c 0
 64.28125 131.60546875 62.666015625 172.89453125 65.1552734375 207.869140625 c 0
 67.6455078125 242.842773438 67.671875 281.510742188 67.6640625 330.004882812 c 0
 67.6572265625 378.499023438 69.666015625 422.479492188 68.1318359375 478.912109375 c 0
 66.59765625 535.344726562 55.3515625 596.314453125 55.3515625 619.771484375 c 0
 55.3515625 643.228515625 58.0693359375 658.134765625 74.0390625 675.896484375 c 0
 87.5412559534 693.657226562 136.739966231 711.513671875 183.434570312 711.498046875 c 0
 237.13117687 711.479492188 274.079922708 702.19921875 278.985351562 640.723632812 c 0
 287.80859375 548.479492188 282.575195312 185.452148438 282.575195312 154 c 0
EndSplineSet
EndChar

StartChar: uni0097
Encoding: 151 151 17
Width: 674
Flags: HW
LayerCount: 2
Back
Fore
SplineSet
215.3515625 271.5 m 1
 215.351573566 416.898537362 360.758384393 515.922675315 476.38671875 515 c 4
 547.491584663 514.448073981 618 463 618 262 c 4
 618 61.0001796042 540.431894093 0.000234111017335 455.499023438 0.9384765625 c 4
 373.929591666 1.87671394691 269.127212002 38 240.458984375 38 c 0
 240.458984375 119 l 1
 240.458984375 119 299.658203125 119 327.069335938 119 c 0
 365.910908652 119 378.044921875 131.684570312 378.044921875 163.724609375 c 4
 378.044921875 189.298124053 378.898835439 239.113699819 378.815429688 262.608398438 c 4
 378.7109375 292.04296875 378.3203125 298.528320312 376.734375 310.930664062 c 4
 374.439452954 323.333007812 366.814207045 343.5 344.365234375 343.5 c 0
 326.234687727 343.5 314.547869289 336 309.723632812 322.69921875 c 0
 305.595703125 309.3984375 305.8515625 290.75 305.8515625 271.75 c 1
 305.8515625 271.75 270 271.5 215.3515625 271.5 c 1
EndSplineSet
EndChar

StartChar: uni0098
Encoding: 152 152 18
Width: 642
Flags: W
HStem: 0.0703125 21G<473.423 496.958> 352.737 162.263<322.387 459.466>
VStem: 186.72 94<274.07 347.245> 355.553 214.166<92.0054 351.809>
LayerCount: 2
Back
Fore
SplineSet
358.719726562 92.73828125 m 4
 344.583984375 175.342773438 355.514731835 312.802752453 355.552734375 325.736328125 c 4
 355.606788416 342.46875 345.668266738 353.087278705 322.38671875 352.737304688 c 4
 292.600460801 352.256835938 279.528686948 328.217773438 280.719726562 274.0703125 c 5
 240.202148438 272.470703125 222.375 272.69921875 186.719726562 270.0703125 c 5
 186.719726562 332.0703125 217.134076353 399.515600919 303.844726562 460.0703125 c 4
 339.46385257 483.826171875 393.962055866 516.222817529 459.465820312 515 c 4
 529.431621651 513.669921875 567.154452818 485.99642392 568.719726562 434.0703125 c 4
 569.71875 399.993164062 569.71875 354.484375 569.71875 268.403320312 c 4
 569.71875 205.583984375 571.052636033 182.737292747 575.504882812 146.0703125 c 4
 578.389648437 122.3125 584.595004608 103.070488012 592.752929688 90.146484375 c 4
 606.32421875 68.646484375 578.768248711 34.5562367072 560.1484375 22.212890625 c 4
 538.813343313 8.62109375 510.695808686 0.0703125 483.219726562 0.0703125 c 4
 463.626888682 0.0703125 426.773308234 0.781840673016 401.719726562 17.0703125 c 4
 375.052734375 35.0703125 364.445087259 59.2812114546 358.719726562 92.73828125 c 4
EndSplineSet
EndChar

StartChar: uni0099
Encoding: 153 153 19
Width: 662
Flags: HW
LayerCount: 2
Back
Fore
SplineSet
292.466796875 422.33203125 m 0
 306.602539061 339.727539062 295.671791603 202.267560047 295.633789062 189.333984375 c 0
 295.578105219 172.6015625 305.816286699 161.983033796 329.799804688 162.333007812 c 0
 359.586062636 162.813476562 372.657836489 186.852539062 371.466796875 241 c 1
 411.984375001 242.599609375 429.811523438 242.37109375 465.466796875 245 c 1
 465.466796875 183 435.052447084 115.554711583 348.341796875 55 c 0
 313.180438195 31.244140625 259.382630995 -1.15250502947 194.720703125 0.0703125 c 0
 126.676090798 1.400390625 89.9890898104 29.0738885797 88.466796875 81 c 0
 87.4677734375 115.077148438 87.4677734375 160.5859375 87.4677734375 246.666992188 c 0
 87.4677734375 309.486328125 86.1338874032 332.333019753 81.681640625 369 c 0
 78.7968750008 392.7578125 72.5915188298 411.999824488 64.43359375 424.923828125 c 0
 50.8623046868 446.423828125 78.4182747262 480.514075793 97.0380859375 492.857421875 c 0
 117.54117239 506.44921875 144.562203477 515 170.966796875 515 c 0
 189.838425999 515 225.335432933 514.288471826 249.466796875 498 c 0
 276.133789063 480 286.741436179 455.789101045 292.466796875 422.33203125 c 0
EndSplineSet
EndChar

StartChar: uni009A
Encoding: 154 154 20
Width: 668
Flags: W
HStem: -4.22852 134.229<173.679 343.476> 380.432 134.568<293.767 377.686>
VStem: 29.8936 235.625<159.114 349.098> 399.519 102<160.636 343.173>
LayerCount: 2
Back
Fore
SplineSet
399.518554688 252 m 0
 399.518554688 314.041108536 377.685668223 380.139065584 328.327148438 380.431640625 c 0
 289.153960312 380.663841614 265.518554688 313.818369596 265.518554688 252 c 0
 265.518554688 194.393646894 285.446824442 130 327.518554688 130 c 0
 378.775844567 130 399.518554688 192.957300798 399.518554688 252 c 0
228.518554688 -4.228515625 m 0
 118.839557864 -4.228515625 29.8935546875 88 29.8935546875 252 c 0
 29.8935546875 416.000976562 114.658541145 515 228.151367188 515 c 0
 386.104812027 515 501.518554688 359.745644457 501.518554688 261.385742188 c 0
 501.518554688 91.3783635201 381.049789698 -4.228515625 228.518554688 -4.228515625 c 0
EndSplineSet
EndChar

StartChar: grave
Encoding: 96 96 22
Width: 613
Flags: HW
LayerCount: 2
Back
Fore
SplineSet
-420 -60 m 0
 -454.032226562 -60 -489 -56 -516.418945312 -47.94921875 c 0
 -551.053710938 -37.7802734375 -564.7421875 -19.087890625 -583.572265625 -19.087890625 c 0
 -618.5 -19.087890625 -635.5 -39 -635.5 -60 c 0
 -635.5 -108.5 -545.508789062 -230.228515625 -378.994140625 -230.228515625 c 1024
EndSplineSet
EndChar

StartChar: r
Encoding: 114 114 23
Width: 530
Flags: HW
HStem: 0 21G<119.885 143.055 119.885 143.055> 352.737 162.263<266.485 393.098 266.485 393.098>
VStem: -2.97847 226.224<58.7778 152.944 58.7778 152.944 372.09 479.943 372.09 479.943> 6.96003 216.285<40.3229 418.738 40.3229 418.738> 130.818 94<274.07 347.502 274.07 347.502>
LayerCount: 2
Back
SplineSet
323.461914062 92.73828125 m 4
 309.326171875 175.342773438 320.256835938 312.802734375 320.294921875 325.736328125 c 4
 320.348632812 342.46875 310.41015625 353.086914062 287.12890625 352.737304688 c 4
 257.342773438 352.256835938 244.270507812 328.217773438 245.461914062 274.0703125 c 5
 204.944335938 272.470703125 187.1171875 272.69921875 151.461914062 270.0703125 c 5
 151.461914062 332.0703125 181.875976562 399.515625 268.586914062 460.0703125 c 4
 304.206054688 483.826171875 358.704101562 516.22265625 424.208007812 515 c 4
 494.173828125 513.669921875 531.896484375 485.99609375 533.461914062 434.0703125 c 4
 534.4609375 399.993164062 534.4609375 354.484375 534.4609375 268.403320312 c 4
 534.4609375 205.583984375 535.794921875 182.737304688 540.247070312 146.0703125 c 4
 543.131835938 122.3125 549.336914062 103.0703125 557.495117188 90.146484375 c 4
 571.06640625 68.646484375 543.510742188 34.556640625 524.890625 22.212890625 c 4
 503.555664062 8.62109375 475.438476562 0.0703125 447.961914062 0.0703125 c 4
 428.369140625 0.0703125 391.515625 0.7822265625 366.461914062 17.0703125 c 4
 339.794921875 35.0703125 329.1875 59.28125 323.461914062 92.73828125 c 4
EndSplineSet
Refer: 18 152 N 1 0 0 1 -41.2569 0 2
Refer: 10 305 N 1 0 0 1 -37.247 0 2
Refer: 18 152 N 1 0 0 1 -41.2569 0 2
Refer: 10 305 N 1 0 0 1 -37.247 0 2
Refer: 18 152 N 1 0 0 1 -41.2569 0 2
Refer: 10 305 N 1 0 0 1 -37.247 0 2
Refer: 18 152 N 1 0 0 1 -41.2569 0 2
Refer: 10 305 N 1 0 0 1 -37.247 0 2
Refer: 18 152 N 1 0 0 1 -41.2569 0 2
Refer: 10 305 N 1 0 0 1 -37.247 0 2
Refer: 18 152 N 1 0 0 1 -41.2569 0 2
Refer: 10 305 N 1 0 0 1 -37.247 0 2
Refer: 18 152 N 1 0 0 1 -41.2569 0 2
Refer: 10 305 N 1 0 0 1 -37.247 0 2
Fore
Refer: 26 148 S 1 0 0 1 -28.5013 0 2
Refer: 10 305 N 1 0 0 1 -52.9023 0 2
EndChar

StartChar: uni009B
Encoding: 155 155 24
Width: 668
Flags: W
HStem: -4.22852 134.229<187.936 357.733> 380.432 134.568<153.726 237.645>
VStem: 29.8936 102<160.721 342.62> 265.894 235.625<159.114 349.05>
LayerCount: 2
Back
Fore
SplineSet
131.893554688 252 m 4
 131.893554688 192.957300798 152.636264809 130 203.893554688 130 c 4
 245.965284934 130 265.893554688 194.393646894 265.893554688 252 c 4
 265.893554688 313.818369596 242.258149064 380.663841614 203.084960938 380.431640625 c 4
 153.726441153 380.139065584 131.893554688 314.041108536 131.893554688 252 c 4
302.893554688 -4.228515625 m 0
 150.362319677 -4.228515625 29.8934950065 91.3783635199 29.8935546875 261.385742188 c 0
 29.8935891708 359.614774891 145.306984363 516.187829617 303.260742188 515 c 0
 416.75035924 514.146545608 501.518554688 416.000976562 501.518554688 252 c 0
 501.518554688 88 412.572551511 -4.228515625 302.893554688 -4.228515625 c 0
EndSplineSet
EndChar

StartChar: uni0095
Encoding: 149 149 25
Width: 628
Flags: W
HStem: 0 162.263<146.877 288.956>
VStem: 30.3984 225.392<165.358 344.32 383.599 479.943> 42.624 213.166<163.427 489.816> 331.332 95.291<171.704 240.931>
LayerCount: 2
Back
Fore
SplineSet
255.790039062 189.263671875 m 4xd0
 254.835128488 174.88671875 265.673293614 162.004882813 288.956054688 162.262695312 c 4
 319.249023438 162.743164062 331.33203125 196 331.33203125 240.930664062 c 5
 372.40625 242.530273438 390.478515625 242.301757812 426.623046875 244.9296875 c 5
 426.623046875 182.9296875 402.125976562 108.548828125 314.498046875 54.9296875 c 4
 276.132569006 31.173828125 217.433532623 -1.1748046875 146.876953125 0 c 4
 80.7535298077 1.330078125 44.8681571736 28.9970703125 43.623046875 80.9296875 c 4
 42.6240234375 115.006835938 39.615234375 160.568359375 42.6240234375 246.596679688 c 4xb0
 45.6162109375 332.134765625 30.794921875 397.510742188 30.3984375 419.892578125 c 4
 29.9833984375 443.38671875 32.873046875 458.9296875 48.7119140625 476.544921875 c 4
 62.0003096418 494.72265625 108.4989758 512.381835938 148.711914062 512.544921875 c 4
 203.50698368 512.74609375 246.886706203 501.870117188 254.682617188 464.205078125 c 4
 266.711914072 412 260.954101567 300.49609375 255.790039062 189.263671875 c 4xd0
EndSplineSet
EndChar

StartChar: uni0094
Encoding: 148 148 26
Width: 562
Flags: W
HStem: 352.737 162.263<295.387 422>
VStem: 159.72 94<274.07 347.502>
LayerCount: 2
Back
Fore
SplineSet
508.171875 406.069335938 m 0
 507.916015625 383.247070312 517.26171875 363.069335938 525.419921875 350.145507812 c 1
 538.991210938 328.645507812 512.833007812 292.12890625 492.815429688 282.211914062 c 0
 470.92578125 268.620117188 442.076171875 260.069335938 413.88671875 260.069335938 c 0
 395.736328125 260.069335938 359.953125 258.65625 338.38671875 277.069335938 c 0
 311.719726562 295.069335938 329.307617188 353.938476562 295.38671875 352.737304688 c 24
 260.690429688 351.508789062 252.528320312 328.217773438 253.719726562 274.0703125 c 1
 213.202148438 272.470703125 195.375 272.69921875 159.719726562 270.0703125 c 1
 159.719726562 332.0703125 190.133789062 399.515625 276.844726562 460.0703125 c 0
 311.946289062 484.583984375 346 515 422 515 c 0
 482 515 509 480 508.171875 406.069335938 c 0
EndSplineSet
EndChar

StartChar: f
Encoding: 102 102 27
Width: 492
Flags: HW
HStem: 649.737 162.263<1051.32 1177.94>
VStem: 795.6 214.911<39.7143 717.077> 915.66 94<571.07 644.502>
LayerCount: 2
Back
SplineSet
302.74609375 243.436523438 m 5
 302.74609375 211.984375 311.8359375 90.4140625 322.701171875 73.2021484375 c 5
 333.565429688 55.990234375 307.407226562 19.4736328125 283.680664062 7.7197265625 c 4
 265.016601562 -4.03515625 236.57421875 -12.5859375 213.6484375 -12.5859375 c 4
 190.251953125 -12.5859375 153.91796875 -13.998046875 132.266601562 4.2080078125 c 4
 105.293945312 22.4140625 93.52734375 43.775390625 88.990234375 81.158203125 c 4
 84.4521484375 118.540039062 82.8369140625 159.829101562 85.326171875 194.803710938 c 4
 87.81640625 229.77734375 87.8427734375 268.4453125 87.8349609375 316.939453125 c 4
 87.828125 365.43359375 89.8369140625 409.4140625 88.302734375 465.846679688 c 4
 86.7685546875 522.279296875 75.5224609375 606.177734375 75.5224609375 629.634765625 c 4
 75.5224609375 653.091796875 79.7548828125 666.745117188 94.2099609375 685.759765625 c 4
 107.711914062 703.520507812 135.314453125 761.634765625 295.314453125 761.634765625 c 4
 435.314453125 761.634765625 557.171875 742.934570312 556.342773438 669.00390625 c 4
 556.086914062 646.181640625 565.432617188 626.00390625 573.590820312 613.080078125 c 5
 587.162109375 591.580078125 561.00390625 555.063476562 540.986328125 545.146484375 c 4
 519.096679688 531.5546875 490.247070312 523.00390625 462.057617188 523.00390625 c 4
 443.907226562 523.00390625 408.124023438 521.590820312 386.557617188 540.00390625 c 4
 359.890625 558.00390625 373.314453125 615.671875 343.557617188 615.671875 c 4
 303.2578125 615.671875 296.53125 592.803710938 302.74609375 243.436523438 c 5
91.99609375 280.818359375 m 4
 68.0791015625 281.653320312 48.705078125 273.234375 35.5048828125 265.532226562 c 5
 13.5439453125 252.719726562 -22.037109375 280.135742188 -31.25 300.487304688 c 4
 -44.0693359375 322.837890625 -51.607421875 351.96875 -50.6240234375 380.140625 c 4
 -49.990234375 398.280273438 -50.154296875 434.090820312 -31 455.001953125 c 4
 -12.080078125 481.024414062 9.6787109375 492.038085938 46.123046875 495.334960938 c 4
 82.10546875 498.58984375 133.313476562 496.442382812 156.010742188 495 c 4
 179.946289062 493.478515625 219.438476562 489.20703125 252.965820312 489.345703125 c 4
 288.25 489.491210938 349.57421875 498.184570312 373.6171875 497.344726562 c 4
 397.099609375 496.525390625 412.3203125 493.275390625 429.595703125 477.065429688 c 4
 447.28515625 462.751953125 463.266601562 414.271484375 461.979492188 372.872070312 c 4
 460.413085938 322.237304688 448.1953125 282.315429688 410.25 276.6484375 c 4
 357.657226562 266.448242188 115.912109375 279.982421875 91.99609375 280.818359375 c 4
EndSplineSet
Fore
SplineSet
119.514648438 348.818359375 m 0
 95.59765625 349.653320312 70.599609375 338 55.599609375 338 c 1
 36.216796875 338 17.599609375 355.5 3.8447265625 372.955078125 c 0
 -5.560546875 384.890625 -11.5810546875 407.625976562 -11.900390625 424 c 0
 -12.12109375 435.280273438 -11.4287109375 453.165039062 2.099609375 470.5 c 0
 22.140625 496.178710938 39.8232421875 505.275390625 73.6416015625 508.334960938 c 0
 109.624023438 511.58984375 160.83203125 509.442382812 183.529296875 508 c 0
 207.46484375 506.478515625 242.418945312 502.01953125 280.7265625 503.516601562 c 0
 305.98828125 504.50390625 350.641601562 514.334960938 365.641601562 514.334960938 c 1
 385.024414062 514.334960938 403.641601562 496.834960938 417.396484375 479.379882812 c 0
 426.801757812 467.444335938 432.822265625 444.708984375 433.141601562 428.334960938 c 0
 433.362304688 417.0546875 432.669921875 399.169921875 419.141601562 381.834960938 c 0
 399.100585938 356.15625 381.41796875 347.059570312 347.599609375 344 c 0
 311.6171875 340.745117188 142.244140625 348.024414062 119.514648438 348.818359375 c 0
EndSplineSet
Refer: 29 147 S 1 0 0 1 -86.3998 0 2
EndChar

StartChar: t
Encoding: 116 116 28
Width: 448
Flags: HWO
LayerCount: 2
Back
Fore
SplineSet
201.533203125 688.850585938 m 0
 255.229492188 688.850585938 256.881835938 664.450195312 256.881835938 618.076171875 c 0xc0
 256.881835938 459 242.791015625 329.637695312 263.270507812 194.436523438 c 0
 264.41796875 186.861328125 273.270507812 162.436523438 295.270507812 162.436523438 c 0
 324.270507812 162.436523438 292.770507812 212.99609375 332.270507812 212.99609375 c 0
 416.270507812 212.99609375 428.270507812 200.436523438 428.270507812 128.436523438 c 0
 428.270507812 57.9365234375 339.770507812 13.4365234375 223.770507812 13.4365234375 c 0
 51.4912109375 13.4365234375 38.6025390625 112.713867188 43.4921875 292.58984375 c 0
 45.0263671875 349.022460938 43.0244140625 373.505859375 43.0244140625 422 c 0
 43.0244140625 453.002929688 40.515625 522.3671875 40.515625 582 c 0
 40.515625 633.5 129.033203125 688.850585938 201.533203125 688.850585938 c 0
67.626953125 348.818359375 m 0
 43.7099609375 349.653320312 18.7119140625 338 3.7119140625 338 c 1
 -15.6708984375 338 -34.2880859375 355.5 -48.04296875 372.955078125 c 0
 -57.4482421875 384.890625 -63.46875 407.625976562 -63.7880859375 424 c 0
 -64.0087890625 435.280273438 -62.6474609375 452.663085938 -49.7880859375 470.5 c 0
 -34.2880859375 492 -12.064453125 505.275390625 21.75390625 508.334960938 c 0
 57.736328125 511.58984375 108.944335938 509.442382812 131.641601562 508 c 0
 155.577148438 506.478515625 190.53125 502.01953125 228.838867188 503.516601562 c 0
 254.100585938 504.50390625 298.75390625 514.334960938 313.75390625 514.334960938 c 1
 333.13671875 514.334960938 351.75390625 496.834960938 365.508789062 479.379882812 c 0
 374.9140625 467.444335938 380.934570312 444.708984375 381.25390625 428.334960938 c 0
 381.474609375 417.0546875 380.782226562 399.169921875 367.25390625 381.834960938 c 0
 347.212890625 356.15625 329.530273438 347.059570312 295.711914062 344 c 0
 259.729492188 340.745117188 90.3564453125 348.024414062 67.626953125 348.818359375 c 0
EndSplineSet
EndChar

StartChar: uni0093
Encoding: 147 147 29
Width: 578
Flags: HW
LayerCount: 2
Back
Fore
SplineSet
396 584 m 0
 375.515625 448.799804688 390.665039062 294.888671875 390.665039062 263.436523438 c 0xc0
 390.665039062 231.984375 399.754882812 110.4140625 410.620117188 93.2021484375 c 1
 421.484375 75.990234375 395.326171875 39.4736328125 371.599609375 27.7197265625 c 0
 352.935546875 15.96484375 324.493164062 7.4140625 301.567382812 7.4140625 c 0
 278.170898438 7.4140625 241.836914062 6.001953125 220.185546875 24.2080078125 c 0
 193.212890625 42.4140625 181.446289062 63.775390625 176.909179688 101.158203125 c 0
 172.37109375 138.540039062 170.755859375 179.829101562 173.245117188 214.803710938 c 0
 175.735351562 249.77734375 175.76171875 288.4453125 175.75390625 336.939453125 c 0
 175.747070312 385.43359375 177.755859375 429.4140625 176.221679688 485.846679688 c 0
 171.3315624 665.7226872 184.220703125 765 356.5 765 c 4
 472.5 765 561 720.5 561 650 c 0
 561 578 549 565.440429688 465 565.440429688 c 0
 425.5 565.440429688 457 616 428 616 c 0
 406 616 397.147722671 591.575155662 396 584 c 0
EndSplineSet
EndChar

